# xmcd
#
# Track frame offsets: 
#        150
#        13634
#        27170
#        40015
#        51953
#        65375
#        78639
#        91420
#        102682
#        114863
#        127003
#        139511
#        152862
#        166026
#        180656
#        191274
#        204265
#        217319
#        230882
#        242764
#        255793
#        268789
#        282823
#        297609
#        310507
#
# Disc length: 4318 seconds
#
# Revision: 1
# Processed by: cddbd v1.5.2PL0 Copyright (c) Steve Scherf et al.
# Submitted via: ExactAudioCopy v1.1
#
DISCID=6210dc19
DTITLE=Amos Milburn - Rockin' And Drinkin' [CD1)
DYEAR=1900
DGENRE=R&B
TTITLE0=After Midnite
TTITLE1=Down The Road A Piece
TTITLE2=Chicken Shack Boogie
TTITLE3=It Took A Long Long Time
TTITLE4=Bewildered
TTITLE5=A and M Blues
TTITLE6=Hold Me Baby
TTITLE7=Jitterbug Fashion Parade
TTITLE8=In The Middle Of The Night
TTITLE9=Pot Luck Boogie
TTITLE10=Roomin' House Boogie
TTITLE11=Empty Arms Blues
TTITLE12=Let's Make Christmas Merry Baby
TTITLE13=Bow - Wow
TTITLE14=Real Pretty Mama Blues
TTITLE15=Drifting Blues
TTITLE16=How Long Has This Train Been Gone
TTITLE17=Walking Blues
TTITLE18=Johnson Rag
TTITLE19=Square Dance Boogie
TTITLE20=Anybody's Blues
TTITLE21=Birmingham Bounce
TTITLE22=Hard Luck Blues
TTITLE23=Sax Shack Boogie
TTITLE24=Bad Bad Whiskey
EXTD=
EXTT0=
EXTT1=
EXTT2=
EXTT3=
EXTT4=
EXTT5=
EXTT6=
EXTT7=
EXTT8=
EXTT9=
EXTT10=
EXTT11=
EXTT12=
EXTT13=
EXTT14=
EXTT15=
EXTT16=
EXTT17=
EXTT18=
EXTT19=
EXTT20=
EXTT21=
EXTT22=
EXTT23=
EXTT24=
PLAYORDER=
